<?xml version="1.0" encoding="utf-8"?>
<svg xmlns="http://www.w3.org/2000/svg" viewBox="-277.629 -202.687 971.799 838.947" xmlns:bx="https://boxy-svg.com">
  <defs>
    <linearGradient id="f9d7795c-47ab-4264-adf8-fc9a284cd87a" x1="491.14" y1="640.96" x2="698.09" y2="640.96" gradientUnits="userSpaceOnUse" gradientTransform="matrix(1, 0, 0, 1, -362.884369, -245.87532)">
      <stop offset="0" stop-color="gray" stop-opacity="0.25"/>
      <stop offset="0.54" stop-color="gray" stop-opacity="0.12"/>
      <stop offset="1" stop-color="gray" stop-opacity="0.1"/>
    </linearGradient>
    <bx:export>
      <bx:file format="svg" href="#object-0"/>
    </bx:export>
  </defs>
  <g id="ae7ad495-543d-4c4b-9483-8059c5566fe6">
    <title>personalization</title>
    <path d="M 318.896 -104.3 C 254.176 -106.55 192.536 -127.44 133.676 -150.29 C 74.816 -173.16 16.516 -198.49 -46.654 -210.59 C -87.284 -218.38 -133.75 -219.49 -166.48 -197.71 C -197.99 -176.71 -208.17 -140.56 -213.64 -106.97 C -217.76 -81.715 -220.18 -55.125 -208.9 -31.485 C -201.06 -15.065 -187.16 -1.265 -177.54 14.465 C -144.07 69.185 -167.73 136.665 -203.99 190.095 C -220.99 215.165 -240.74 239.095 -253.87 265.755 C -267 292.415 -273.07 323.005 -261.58 350.225 C -250.2 377.225 -223.07 397.465 -193.68 411.715 C -133.99 440.665 -63.684 448.945 4.926 453.635 C 156.756 464.025 309.386 459.525 461.616 455.025 C 517.956 453.355 574.536 451.665 629.956 442.955 C 660.736 438.115 692.506 430.445 714.856 411.905 C 743.216 388.375 750.246 348.535 731.236 319.025 C 699.356 269.535 611.236 257.245 588.926 204.135 C 576.666 174.895 589.256 142.335 607.086 115.215 C 645.326 57.055 709.416 6.025 712.786 -60.455 C 715.106 -106.11 684.296 -151.84 636.656 -173.46 C 586.726 -196.09 517.476 -193.25 480.656 -155.76 C 442.706 -117.17 376.046 -102.31 318.896 -104.3 Z" opacity="0.1" id="object-0" style="fill: rgb(244, 254, 255);"/>
    <ellipse cx="215.836" cy="565.295" rx="303.97" ry="41.12" opacity="0.1" style="fill: rgb(244, 254, 255);"/>
    <path d="M 65.356 442.875 C 65.356 442.875 86.356 439.515 98.956 454.355 C 98.956 454.355 89.716 461.635 69.836 451.555 L 65.356 442.875 Z" fill="#38d39f"/>
    <path d="M 63.116 442.545 C 63.116 442.545 49.716 459.125 56.286 477.395 C 56.286 477.395 67.206 473.025 68.396 450.765 L 63.116 442.545 Z" style="fill: rgb(0, 180, 255);"/>
    <path d="M 51.116 415.435 C 51.116 415.435 59.516 400.035 93.116 421.595 C 93.116 421.595 88.636 431.955 73.796 431.115 C 58.956 430.275 54.986 423.555 51.116 415.435 Z" style="fill: rgb(0, 180, 255);"/>
    <path d="M 48.906 414.325 C 48.906 414.325 31.476 412.325 29.786 452.225 C 29.786 452.225 40.836 454.525 48.686 441.895 C 56.536 429.265 53.286 422.205 48.906 414.325 Z" style="fill: rgb(0, 180, 255);"/>
    <path d="M 38.746 382.505 C 38.746 382.505 48.546 355.335 84.116 374.655 C 84.116 374.655 75.996 399.585 42.386 391.745 L 38.746 382.505 Z" style="fill: rgb(0, 180, 255);"/>
    <path d="M 27.826 341.895 C 27.826 341.895 46.306 314.455 79.076 339.895 C 79.076 339.895 67.596 365.655 30.626 351.655 L 27.826 341.895 Z" style="fill: rgb(0, 180, 255);"/>
    <path d="M 23.906 303.255 C 23.906 303.255 45.466 278.055 77.906 303.255 C 77.906 303.255 57.456 325.375 23.906 309.695 L 23.906 303.255 Z" style="fill: rgb(0, 180, 255);"/>
    <path d="M 20.546 265.735 C 20.546 265.735 42.386 239.405 73.476 264.335 C 73.476 264.335 48.826 287.575 20.546 271.895 L 20.546 265.735 Z" style="fill: rgb(0, 180, 255);"/>
    <path d="M 22.506 232.405 C 22.506 232.405 45.506 198.525 74.596 221.485 C 74.596 221.485 49.946 250.615 22.506 238.845 L 22.506 232.405 Z" style="fill: rgb(0, 180, 255);"/>
    <path d="M 27.826 193.485 C 27.826 193.485 52.186 159.885 80.476 185.645 C 80.476 185.645 51.626 214.765 27.826 199.645 L 27.826 193.485 Z" style="fill: rgb(0, 180, 255);"/>
    <path d="M 35.956 158.695 C 35.956 158.695 64.786 127.125 89.956 139.695 C 89.956 139.695 59.896 173.225 34.696 167.065 L 35.956 158.695 Z" style="fill: rgb(0, 180, 255);"/>
    <path d="M 46.026 125.725 C 46.026 125.725 79.356 87.075 98.676 99.955 C 98.676 99.955 74.156 129.955 43.676 133.005 L 46.026 125.725 Z" style="fill: rgb(0, 180, 255);"/>
    <path d="M 60.576 87.465 C 60.576 87.465 89.716 55.885 110.996 63.725 C 110.996 63.725 86.076 96.495 56.666 97.335 L 60.576 87.465 Z" style="fill: rgb(0, 180, 255);"/>
    <path d="M 73.756 51.685 C 73.756 51.685 105.956 21.445 119.956 26.765 C 119.956 26.765 96.716 60.365 72.356 58.405 L 73.756 51.685 Z" fill="#38d39f"/>
    <path d="M 86.636 18.645 C 86.636 18.645 114.356 -17.475 129.476 -14.675 C 129.476 -14.675 112.676 17.525 86.636 22.325 L 86.636 18.645 Z" fill="#38d39f"/>
    <path d="M 100.606 -25.875 C 100.606 -25.875 125.116 -53.575 138.346 -53.505 C 138.346 -53.505 119.006 -16.505 99.606 -16.845 L 100.606 -25.875 Z" fill="#38d39f"/>
    <path d="M 108.896 -55.565 L 132.556 -113.25 C 132.556 -113.25 133.746 -61.105 105.876 -44.865 L 108.896 -55.565 Z" style="fill: rgb(0, 180, 255);"/>
    <path d="M 118.496 -119.17 C 118.496 -119.17 122.416 -167.34 119.896 -171.25 C 119.896 -171.25 136.826 -131.25 118.336 -97.895 L 118.496 -119.17 Z" style="fill: rgb(0, 180, 255);"/>
    <path d="M 37.836 381.855 C 37.836 381.855 13.286 366.645 -2.594 403.855 C -2.594 403.855 19.246 418.355 40.716 391.345 L 37.836 381.855 Z" style="fill: rgb(0, 180, 255);"/>
    <path d="M 27.046 340.345 C 27.046 340.345 -3.054 326.615 -17.664 365.465 C -17.664 365.465 5.596 381.465 29.786 350.165 L 27.046 340.345 Z" style="fill: rgb(0, 180, 255);"/>
    <path d="M 22.506 305.565 C 22.506 305.565 0.946 280.365 -31.494 305.565 C -31.494 305.565 -11.054 327.685 22.506 312.005 L 22.506 305.565 Z" style="fill: rgb(0, 180, 255);"/>
    <path d="M 19.816 265.735 C 19.816 265.735 -2.034 239.405 -33.114 264.335 C -33.114 264.335 -8.474 287.575 19.816 271.895 L 19.816 265.735 Z" style="fill: rgb(0, 180, 255);"/>
    <path d="M 22.506 233.365 C 22.506 233.365 7.186 195.415 -26.114 211.735 C -26.114 211.735 -8.114 245.395 21.156 239.665 L 22.506 233.365 Z" style="fill: rgb(0, 180, 255);"/>
    <path d="M 29.756 193.295 C 29.756 193.295 14.536 154.685 -19.244 172.585 C -19.244 172.585 1.436 207.975 28.256 199.265 L 29.756 193.295 Z" style="fill: rgb(0, 180, 255);"/>
    <path d="M 39.196 158.895 C 39.196 158.895 33.196 116.555 5.246 112.765 C 5.246 112.765 11.176 157.405 35.466 166.515 L 39.196 158.895 Z" style="fill: rgb(0, 180, 255);"/>
    <path d="M 46.746 125.795 C 46.746 125.795 44.396 74.795 21.246 73.025 C 21.246 73.025 22.026 111.725 44.136 133.025 L 46.746 125.795 Z" style="fill: rgb(0, 180, 255);"/>
    <path d="M 62.986 86.005 C 62.986 86.005 56.076 43.605 33.986 38.415 C 33.986 38.415 36.726 79.485 60.796 96.415 L 62.986 86.005 Z" style="fill: rgb(0, 180, 255);"/>
    <path d="M 76.376 51.995 C 76.376 51.995 76.136 7.815 62.636 1.325 C 62.636 1.325 54.266 41.325 72.466 57.635 L 76.376 51.995 Z" style="fill: rgb(0, 180, 255);"/>
    <path d="M 87.666 18.125 C 87.666 18.125 85.766 -27.375 71.796 -33.785 C 71.796 -33.785 67.006 2.215 85.566 21.095 L 87.666 18.125 Z" style="fill: rgb(0, 180, 255);"/>
    <path d="M 102.566 -22.275 C 102.566 -22.275 102.476 -59.275 92.496 -67.955 C 92.496 -67.955 82.576 -27.415 97.356 -14.835 L 102.566 -22.275 Z" fill="#38d39f"/>
    <path d="M 107.716 -57.385 L 98.016 -118.97 C 98.016 -118.97 84.816 -68.505 108.176 -46.275 L 107.716 -57.385 Z" style="fill: rgb(0, 180, 255);"/>
    <path d="M 109.616 -118.59 C 109.616 -118.59 84.686 -159.99 85.206 -164.59 C 85.206 -164.59 87.846 -121.19 119.206 -99.59 L 109.616 -118.59 Z" style="fill: rgb(0, 180, 255);"/>
    <path d="M 112.536 -130.81 C 112.536 -130.81 89.016 -189.63 78.376 -194.38 C 78.376 -194.38 111.976 -177.31 114.496 -132.5 L 112.536 -130.81 Z" style="fill: rgb(0, 180, 255);"/>
    <path d="M 99.476 -16.525 L 97.866 -17.015 C 117.716 -81.745 122.676 -123.02 111.816 -133.35 L 112.976 -134.57 C 124.476 -123.67 119.816 -82.875 99.476 -16.525 Z" style="fill: rgb(0, 0, 254);"/>
    <path d="M 44.816 134.995 L 42.446 134.155 C 44.546 128.225 46.816 122.205 49.196 116.265 C 69.916 64.625 87.556 16.595 98.866 -20.285 L 100.936 -21.285 C 89.606 15.665 72.286 65.545 51.536 117.245 C 49.166 123.125 46.906 129.125 44.816 134.995 Z" style="fill: rgb(0, 0, 254);"/>
    <path d="M 94.906 491.325 C 94.586 490.965 62.406 454.745 39.986 392.885 C 26.839 356.681 19.515 318.622 18.286 280.125 C 16.746 231.995 26.846 178.255 44.146 129.445 L 46.026 131.645 C 7.196 241.205 22.626 335.095 43.086 391.645 C 65.286 452.935 97.086 488.775 97.406 489.125 L 94.906 491.325 Z" style="fill: rgb(0, 0, 254);"/>
    <rect x="375.146" y="74.125" width="8.86" height="73.02" rx="2.29" ry="2.29" fill="#3a3768"/>
    <rect x="80.716" y="16.915" width="4.97" height="24.04" rx="2.29" ry="2.29" fill="#3a3768"/>
    <rect x="80.536" y="60.935" width="5.6" height="41.84" rx="2.29" ry="2.29" fill="#3a3768"/>
    <rect x="80.626" y="117.415" width="5.33" height="42.2" rx="2.29" ry="2.29" fill="#3a3768"/>
    <rect x="83.526" y="-62.525" width="296.4" height="602.39" rx="38.99" ry="38.99" style="fill: rgb(0, 0, 254);"/>
    <path d="M 338.116 -46.875 L 304.116 -46.875 L 304.116 -42.785 C 304.116 -32.078 295.433 -23.4 284.726 -23.405 L 176.596 -23.405 C 165.888 -23.4 157.206 -32.078 157.206 -42.785 L 157.206 -46.875 L 125.376 -46.875 C 112.375 -46.875 101.836 -36.336 101.836 -23.335 L 101.836 500.635 C 101.836 513.635 112.375 524.175 125.376 524.175 L 338.116 524.175 C 351.116 524.175 361.656 513.635 361.656 500.635 L 361.656 -23.295 C 361.678 -36.312 351.132 -46.875 338.116 -46.875 Z" style="fill: rgb(0, 180, 255);"/>
    <rect x="203.136" y="-44.535" width="41.39" height="8.4" rx="3.87" ry="3.87" fill="#e6e8ec"/>
    <circle cx="255.556" cy="-40.335" r="4.77" fill="#e6e8ec"/>
    <path d="M 482.546 -88.945 C 482.546 -88.945 398.346 -94.025 408.266 -35.025 C 408.266 -35.025 406.266 -24.595 415.746 -19.865 C 415.746 -19.865 415.896 -24.235 424.386 -22.745 C 427.408 -22.244 430.479 -22.097 433.536 -22.305 C 437.659 -22.576 441.583 -24.18 444.716 -26.875 C 444.716 -26.875 468.386 -36.655 477.586 -75.335 C 477.586 -75.335 484.396 -83.775 484.126 -85.945 L 469.916 -79.875 C 469.916 -79.875 474.776 -69.625 470.916 -61.105 C 470.916 -61.105 470.456 -79.505 467.726 -79.105 C 467.176 -79.025 460.346 -75.555 460.346 -75.555 C 460.346 -75.555 468.696 -57.705 462.396 -44.725 C 462.396 -44.725 464.786 -66.725 457.736 -74.265 L 447.736 -68.425 C 447.736 -68.425 457.496 -49.985 450.876 -34.935 C 450.876 -34.935 452.576 -58.015 445.626 -67.005 L 436.566 -59.935 C 436.566 -59.935 445.736 -41.765 440.146 -29.285 C 440.146 -29.285 439.416 -56.145 434.606 -58.175 C 434.606 -58.175 426.676 -51.175 425.466 -48.315 C 425.466 -48.315 431.746 -35.115 427.846 -28.155 C 427.846 -28.155 425.456 -46.055 423.496 -46.155 C 423.496 -46.155 415.596 -34.295 414.776 -26.155 C 414.776 -26.155 415.116 -38.245 421.586 -47.275 C 421.586 -47.275 413.946 -45.965 409.486 -41.015 C 409.486 -41.015 410.716 -49.395 423.536 -50.135 C 423.536 -50.135 430.066 -59.135 431.806 -59.675 C 431.806 -59.675 419.066 -60.745 411.336 -57.315 C 411.336 -57.315 418.136 -65.225 434.146 -61.625 L 443.096 -68.935 C 443.096 -68.935 426.316 -71.225 419.196 -68.695 C 419.196 -68.695 427.386 -75.695 445.506 -70.595 L 455.246 -76.415 C 455.246 -76.415 440.936 -79.495 432.416 -78.415 C 432.416 -78.415 441.416 -83.265 458.106 -78.005 L 465.106 -81.135 C 465.106 -81.135 454.626 -83.195 451.556 -83.525 C 448.486 -83.855 448.326 -84.695 448.326 -84.695 C 454.965 -85.802 461.782 -85.044 468.016 -82.505 C 468.016 -82.505 482.796 -88.015 482.546 -88.945 Z" style="fill: rgb(0, 180, 255);"/>
    <path d="M 396.176 -115.19 C 396.176 -115.19 358.176 -117.47 362.616 -90.815 C 362.616 -90.815 361.726 -86.105 365.996 -83.965 C 365.996 -83.965 366.066 -85.965 369.906 -85.275 C 371.27 -85.046 372.656 -84.979 374.036 -85.075 C 375.901 -85.199 377.675 -85.929 379.086 -87.155 C 379.086 -87.155 389.786 -91.575 393.946 -109.06 C 393.946 -109.06 397.016 -112.86 396.896 -113.84 L 390.476 -111.11 C 390.476 -111.11 392.666 -106.47 390.946 -102.63 C 390.946 -102.63 390.736 -110.94 389.506 -110.75 C 389.256 -110.75 386.166 -109.14 386.166 -109.14 C 386.166 -109.14 389.946 -101.06 387.096 -95.205 C 387.096 -95.205 388.176 -105.14 384.986 -108.56 L 380.466 -105.88 C 380.466 -105.88 384.876 -97.545 381.886 -90.745 C 381.886 -90.745 382.656 -101.17 379.516 -105.23 L 375.426 -102.03 C 375.426 -102.03 379.566 -93.825 377.046 -88.185 C 377.046 -88.185 376.706 -100.33 374.536 -101.25 C 374.536 -101.25 370.956 -98.085 370.406 -96.785 C 370.406 -96.785 373.246 -90.785 371.486 -87.675 C 371.486 -87.675 370.406 -95.765 369.486 -95.805 C 369.486 -95.805 365.916 -90.445 365.546 -86.805 C 365.724 -90.199 366.786 -93.488 368.626 -96.345 C 366.566 -95.955 364.664 -94.971 363.156 -93.515 C 363.156 -93.515 363.716 -97.305 369.506 -97.635 C 369.506 -97.635 372.506 -101.7 373.246 -101.95 C 373.246 -101.95 367.486 -102.44 363.996 -100.89 C 363.996 -100.89 367.066 -104.45 374.296 -102.83 L 378.296 -106.14 C 378.296 -106.14 370.706 -107.14 367.496 -106.03 C 367.496 -106.03 371.196 -109.19 379.386 -106.89 L 383.786 -109.52 C 383.786 -109.52 377.316 -110.91 373.466 -110.41 C 373.466 -110.41 377.536 -112.59 385.076 -110.22 L 388.226 -111.64 C 388.226 -111.64 383.486 -112.56 382.096 -112.72 C 380.706 -112.86 380.636 -113.25 380.636 -113.25 C 383.638 -113.75 386.719 -113.4 389.536 -112.25 C 389.536 -112.25 396.296 -114.77 396.176 -115.19 Z" style="fill: rgb(0, 180, 255);"/>
    <rect x="128.256" y="10.485" width="206.95" height="439.24" opacity="0.1"/>
    <path d="M 328.866 572.345 C 328.866 572.345 323.986 560.985 321.806 555.745 C 320.576 552.745 318.496 552.245 316.906 552.315 L 316.996 551.315 L 317.386 546.585 L 317.466 545.585 C 321.236 544.795 324.466 544.175 324.466 544.175 L 322.116 422.855 C 322.116 422.855 321.116 421.575 318.696 413.855 C 317.496 410.005 311.696 405.275 306.276 401.505 C 305.426 400.915 304.596 400.355 303.776 399.815 C 305.749 398.161 307.823 396.632 309.986 395.235 C 313.066 393.445 314.086 383.235 314.086 383.235 L 313.576 384.235 C 314.086 383.235 313.576 357.165 313.576 357.165 L 311.776 330.105 C 311.776 330.105 310.496 297.935 300.496 289.505 C 290.496 281.075 277.866 278.125 277.866 278.125 L 270.866 276.325 L 257.966 273.015 C 257.606 272.425 257.256 271.805 256.966 271.155 C 256.836 270.905 256.716 270.645 256.596 270.385 C 264.593 264.723 269.346 255.533 269.346 245.735 C 269.348 244.113 269.217 242.495 268.956 240.895 C 268.956 240.595 268.846 240.285 268.786 239.985 C 269.846 239.259 270.849 238.453 271.786 237.575 C 273.313 236.358 274.561 234.826 275.446 233.085 C 275.584 232.743 275.698 232.392 275.786 232.035 C 275.786 231.935 275.786 231.835 275.846 231.725 C 275.906 231.615 275.936 231.195 275.966 230.925 C 275.966 230.825 275.966 230.725 275.966 230.625 C 275.966 230.335 275.966 230.035 275.966 229.745 C 275.966 229.675 275.966 229.605 275.966 229.525 C 275.966 229.195 275.916 228.865 275.866 228.525 C 275.87 228.505 275.87 228.484 275.866 228.465 C 275.683 227.304 275.381 226.164 274.966 225.065 C 273.966 222.485 272.666 220.065 272.196 217.315 C 271.616 214.065 272.286 210.515 270.736 207.595 C 269.433 205.359 267.199 203.823 264.646 203.405 C 262.107 203.013 259.51 203.31 257.126 204.265 C 255.959 204.819 254.703 205.158 253.416 205.265 C 252.48 205.21 251.562 204.987 250.706 204.605 C 247.737 203.44 244.917 201.926 242.306 200.095 C 240.426 198.612 238.418 197.3 236.306 196.175 C 234.156 195.053 231.618 194.95 229.386 195.895 C 225.686 197.775 224.986 203.015 221.546 205.325 C 219.176 206.925 216.086 206.765 213.226 206.865 C 210.366 206.965 207.126 207.675 205.716 210.155 C 204.716 211.875 204.956 213.925 205.146 215.935 L 205.206 216.615 C 205.206 216.855 205.206 217.105 205.266 217.345 C 205.423 219.916 205.038 222.492 204.136 224.905 C 202.756 228.565 200.136 232.175 200.226 235.905 C 200.234 236.498 200.311 237.089 200.456 237.665 C 200.534 237.953 200.627 238.236 200.736 238.515 C 201.286 239.751 201.904 240.956 202.586 242.125 L 202.676 242.285 C 202.746 242.425 202.816 242.565 202.876 242.705 C 202.936 242.845 203.056 243.085 203.126 243.275 C 203.196 243.465 203.206 243.465 203.236 243.555 C 203.266 243.645 203.366 243.925 203.416 244.115 C 203.581 244.679 203.652 245.267 203.626 245.855 C 203.508 246.613 203.445 247.378 203.436 248.145 C 203.443 248.936 204.001 249.615 204.776 249.775 C 205.188 249.764 205.59 249.64 205.936 249.415 C 206.833 248.903 207.686 248.318 208.486 247.665 C 208.486 247.985 208.486 248.305 208.546 248.665 C 209.242 255.822 212.464 262.498 217.636 267.495 C 217.636 267.805 217.636 268.125 217.566 268.495 C 217.496 268.865 217.516 269.215 217.496 269.585 L 206.296 273.105 C 206.296 273.105 206.356 273.305 206.476 273.645 L 205.296 274.115 C 199.486 276.465 193.016 279.385 189.396 282.035 C 187.796 283.195 186.336 284.145 185.026 284.935 C 180.269 287.846 176.623 292.263 174.666 297.485 L 174.516 297.865 C 173.516 300.155 168.616 315.735 168.616 315.735 C 168.616 315.735 165.026 324.415 164.506 330.035 C 164.506 330.035 158.606 348.665 160.146 360.925 C 160.146 360.925 155.526 378.545 157.326 381.345 C 157.326 381.345 155.486 388.925 163.566 396.555 C 162.976 396.915 162.336 397.305 161.666 397.735 C 155.406 401.675 146.376 408.065 144.836 412.995 C 142.446 420.665 141.416 421.995 141.416 421.995 L 138.996 543.125 C 138.996 543.125 142.226 543.745 145.996 544.525 L 146.076 545.525 L 146.466 550.245 L 146.556 551.245 C 144.966 551.175 142.886 551.725 141.656 554.685 C 139.466 559.915 134.656 571.265 134.656 571.265 C 134.656 571.265 123.886 581.265 130.416 590.545 C 130.703 590.968 131.039 591.358 131.416 591.705 C 136.106 595.965 146.106 593.235 153.216 590.455 C 156.829 588.913 159.944 586.4 162.216 583.195 C 162.795 582.436 163.665 581.954 164.616 581.865 C 166.246 581.602 167.784 580.931 169.086 579.915 C 170.677 578.753 171.596 576.884 171.546 574.915 C 171.541 574.865 171.541 574.815 171.546 574.765 L 170.916 560.535 C 170.916 560.535 170.146 550.595 167.696 551.235 L 167.066 551.385 L 166.896 550.385 L 166.566 548.455 L 166.396 547.455 L 167.756 547.455 C 167.756 547.455 168.096 536.215 172.206 527.375 C 176.316 518.535 179.016 447.125 179.016 447.125 C 179.016 447.125 229.886 447.955 231.586 443.185 C 232.586 443.185 233.676 443.185 234.716 443.115 C 236.426 447.885 284.436 448.115 284.436 448.115 C 284.436 448.115 287.166 519.605 291.266 528.455 C 292.131 530.35 292.85 532.309 293.416 534.315 C 294.706 538.952 295.481 543.717 295.726 548.525 L 297.086 548.525 L 296.906 549.525 L 296.576 551.445 L 296.406 552.445 L 295.756 552.295 C 293.326 551.665 292.556 561.605 292.556 561.605 L 291.906 575.925 C 291.803 577.887 292.698 579.768 294.286 580.925 C 295.61 581.964 297.175 582.652 298.836 582.925 C 299.788 583.001 300.661 583.482 301.236 584.245 C 303.51 587.448 306.624 589.96 310.236 591.505 C 317.916 594.505 328.956 597.435 333.056 591.605 C 339.636 582.305 328.866 572.345 328.866 572.345 Z M 199.566 394.005 L 199.686 394.005 L 199.566 394.005 Z M 279.916 353.125 C 279.916 353.125 281.206 357.975 283.506 360.525 C 285.806 363.075 284.666 378.915 284.666 378.915 C 283.761 378.972 282.863 379.116 281.986 379.345 C 280.216 368.815 278.586 357.125 279.916 353.125 Z" fill="url(#f9d7795c-47ab-4264-adf8-fc9a284cd87a)"/>
    <polygon points="169.306 552.735 149.196 554.735 148.636 548.005 148.246 543.375 147.696 536.605 166.696 537.605 168.206 546.295 168.526 548.185 168.536 548.185 169.306 552.735" fill="#8e6f7f"/>
    <polygon points="315.756 537.615 315.206 544.375 314.826 549.005 314.256 555.735 294.136 553.735 294.936 549.185 295.246 547.305 296.756 538.615 315.756 537.615" fill="#8e6f7f"/>
    <path d="M 294.446 440.225 L 234.646 443.035 C 231.926 443.168 229.206 443.168 226.486 443.035 L 169.356 440.235 L 169.356 394.975 L 294.446 394.975 L 294.446 440.225 Z" fill="#5f5570"/>
    <path d="M 294.446 440.225 L 234.646 443.035 C 231.926 443.168 229.206 443.168 226.486 443.035 L 169.356 440.235 L 169.356 394.975 L 294.446 394.975 L 294.446 440.225 Z" opacity="0.1"/>
    <path d="M 217.866 273.035 C 217.866 273.035 197.946 279.725 190.446 285.225 C 188.886 286.365 187.446 287.305 186.186 288.075 C 181.554 290.931 178.009 295.253 176.116 300.355 C 176.066 300.495 176.016 300.615 175.966 300.725 C 174.966 302.975 170.216 318.225 170.216 318.225 C 170.216 318.225 166.716 326.725 166.216 332.225 C 165.716 337.725 194.716 352.475 194.716 352.475 C 194.716 352.475 180.716 382.975 186.966 390.725 C 193.216 398.475 284.466 402.225 282.466 390.725 C 280.466 379.225 276.966 360.225 278.716 354.975 L 309.716 332.475 C 309.716 332.475 308.466 300.975 298.716 292.725 C 288.966 284.475 276.716 281.475 276.716 281.475 L 257.306 276.475 C 257.306 276.475 250.466 293.475 242.966 295.725 C 235.466 297.975 219.036 287.585 217.866 273.035 Z" fill="#eaeaf2"/>
    <path d="M 245.846 301.665 C 245.846 301.665 237.386 308.725 232.946 301.665 C 232.946 301.665 228.946 313.605 232.946 317.605 L 232.796 318.415 L 232.086 321.975 L 222.826 398.975 L 230.446 412.125 L 244.316 394.725 L 243.196 322.725 L 242.696 318.595 L 242.576 317.595 L 244.946 317.595 C 244.946 317.595 251.236 306.725 245.846 301.665 Z" opacity="0.1"/>
    <path d="M 247.846 301.665 C 247.846 301.665 239.386 308.725 234.946 301.665 C 234.946 301.665 230.946 313.605 234.946 317.605 L 234.796 318.415 L 234.086 321.975 L 224.826 398.975 L 232.446 412.125 L 246.316 394.725 L 245.196 322.725 L 244.696 318.595 L 244.576 317.595 L 246.946 317.595 C 246.946 317.595 253.236 306.725 247.846 301.665 Z" opacity="0.1"/>
    <polygon points="245.316 393.735 231.446 411.105 223.806 398.025 233.076 320.985 233.786 317.425 233.946 316.605 235.196 313.365 243.576 316.605 243.696 317.605 244.196 321.735 245.316 393.735" fill="#bc8487"/>
    <path d="M 168.206 546.285 C 163.89 546.257 159.588 545.819 155.356 544.975 C 153.266 544.455 150.646 543.875 148.256 543.365 L 147.696 536.595 L 166.696 537.595 L 168.206 546.285 Z" opacity="0.1"/>
    <path d="M 231.596 443.125 C 229.936 447.795 180.356 446.975 180.356 446.975 C 180.356 446.975 177.696 516.975 173.696 525.645 C 169.696 534.315 169.356 545.305 169.356 545.305 C 169.356 545.305 160.696 545.305 155.356 543.975 C 150.016 542.645 141.356 540.975 141.356 540.975 L 143.696 422.225 C 143.696 422.225 144.696 420.975 147.026 413.465 C 148.526 408.635 157.326 402.375 163.416 398.465 C 166.816 396.325 169.356 394.925 169.356 394.925 L 198.936 396.125 L 217.196 396.865 C 217.196 396.865 233.266 438.455 231.596 443.125 Z" fill="#5f5570"/>
    <path d="M 169.316 552.725 L 149.196 554.725 L 148.626 547.995 C 149.379 548.016 150.122 548.179 150.816 548.475 C 154.486 551.115 164.976 549.015 168.526 548.175 L 169.316 552.725 Z" opacity="0.1"/>
    <path d="M 173.116 572.175 C 173.164 574.101 172.263 575.929 170.706 577.065 C 169.44 578.058 167.943 578.715 166.356 578.975 C 165.429 579.055 164.58 579.528 164.026 580.275 C 161.803 583.41 158.758 585.87 155.226 587.385 C 148.296 590.105 138.546 592.775 133.976 588.605 C 133.598 588.269 133.263 587.89 132.976 587.475 C 126.606 578.355 137.106 568.595 137.106 568.595 C 137.106 568.595 141.846 557.475 143.976 552.355 C 144.951 549.54 148.155 548.197 150.846 549.475 C 154.846 552.355 166.976 549.595 169.346 548.985 C 171.716 548.375 172.476 558.095 172.476 558.095 L 173.116 572.025 C 173.111 572.075 173.111 572.125 173.116 572.175 Z" fill="#bc8487"/>
    <path d="M 315.766 537.605 L 315.206 544.365 C 312.816 544.875 310.206 545.455 308.096 545.975 C 303.867 546.82 299.568 547.262 295.256 547.295 L 296.766 538.605 L 315.766 537.605 Z" opacity="0.1"/>
    <path d="M 322.116 541.975 C 322.116 541.975 313.456 543.645 308.116 544.975 C 302.776 546.305 294.116 546.305 294.116 546.305 C 294.116 546.305 293.786 535.305 289.786 526.645 C 285.786 517.985 283.116 447.975 283.116 447.975 C 283.116 447.975 236.336 447.705 234.666 443.035 C 232.996 438.365 255.056 398.035 255.056 398.035 L 268.506 397.335 L 294.116 395.975 C 294.116 395.975 299.116 398.695 304.356 402.365 C 309.596 406.035 315.286 410.695 316.456 414.465 C 318.786 421.975 319.786 423.225 319.786 423.225 L 322.116 541.975 Z" fill="#5f5570"/>
    <path d="M 314.826 548.995 L 314.266 555.725 L 294.136 553.725 L 294.936 549.175 C 298.486 550.025 308.936 552.115 312.636 549.475 C 313.329 549.179 314.072 549.016 314.826 548.995 Z" opacity="0.1"/>
    <path d="M 312.636 550.475 C 315.329 549.189 318.541 550.534 319.516 553.355 C 321.636 558.475 326.386 569.605 326.386 569.605 C 326.386 569.605 336.886 579.355 330.516 588.475 C 326.516 594.195 315.756 591.325 308.276 588.385 C 304.74 586.876 301.693 584.414 299.476 581.275 C 298.918 580.526 298.066 580.053 297.136 579.975 C 295.511 579.692 293.984 579.004 292.696 577.975 C 291.158 576.837 290.291 575.005 290.386 573.095 L 291.016 559.095 C 291.016 559.095 291.766 549.365 294.136 549.975 C 296.506 550.585 308.636 553.355 312.636 550.475 Z" fill="#bc8487"/>
    <path d="M 260.946 281.475 L 240.756 302.875 L 240.196 303.475 L 239.466 303.045 C 235.246 300.545 214.136 287.805 215.946 283.975 C 216.946 281.795 217.536 277.255 217.846 273.345 C 217.846 272.875 217.906 272.415 217.946 271.965 C 218.146 268.875 218.196 266.475 218.196 266.475 C 218.196 266.475 256.196 259.975 254.696 266.475 C 254.086 269.105 254.996 272.065 256.286 274.655 C 256.666 275.405 257.086 276.115 257.496 276.785 C 258.505 278.447 259.66 280.016 260.946 281.475 Z" fill="#ffc4d0"/>
    <path d="M 256.286 274.655 C 244.576 283.284 228.336 282.144 217.946 271.965 C 218.146 268.875 218.196 266.475 218.196 266.475 C 218.196 266.475 256.196 259.975 254.696 266.475 C 254.116 269.125 254.996 272.065 256.286 274.655 Z" opacity="0.1"/>
    <path d="M 268.356 249.765 C 268.681 272.602 244.162 287.228 224.221 276.092 C 215.581 271.266 209.915 262.449 209.116 252.585 C 209.036 251.651 208.996 250.711 208.996 249.765 C 208.576 226.929 233.035 212.202 253.021 223.257 C 262.639 228.576 268.527 238.776 268.326 249.765 L 268.356 249.765 Z" fill="#ffc4d0"/>
    <path d="M 267.986 245.025 C 266.424 246.297 264.396 246.846 262.406 246.535 C 257.826 245.535 256.256 238.535 251.576 238.055 C 246.896 237.575 243.786 244.055 239.046 243.925 C 237.046 243.875 235.246 242.565 233.406 241.655 C 230.186 240.065 224.886 239.095 221.406 240.295 C 216.176 242.085 214.406 246.925 211.066 250.775 C 210.495 251.43 209.869 252.036 209.196 252.585 C 209.116 251.651 209.076 250.711 209.076 249.765 C 208.868 226.926 233.463 212.427 253.346 223.667 C 261.273 228.149 266.703 236.022 268.076 245.025 L 267.986 245.025 Z" opacity="0.1"/>
    <path d="M 233.406 240.665 C 235.246 241.565 237.006 242.885 239.046 242.935 C 243.776 243.055 246.866 236.545 251.566 237.055 C 256.266 237.565 257.816 244.505 262.416 245.535 C 265.506 246.235 268.416 243.925 270.726 241.775 C 272.218 240.586 273.436 239.088 274.296 237.385 C 275.296 234.905 274.776 232.045 273.846 229.525 C 272.916 227.005 271.606 224.585 271.146 221.935 C 270.586 218.755 271.236 215.275 269.726 212.415 C 268.46 210.227 266.28 208.722 263.786 208.315 C 261.312 207.931 258.781 208.218 256.456 209.145 C 255.323 209.694 254.1 210.033 252.846 210.145 C 251.93 210.089 251.033 209.869 250.196 209.495 C 247.303 208.355 244.557 206.874 242.016 205.085 C 240.193 203.63 238.242 202.345 236.186 201.245 C 234.094 200.146 231.619 200.047 229.446 200.975 C 225.846 202.815 225.156 207.975 221.806 210.205 C 219.496 211.765 216.486 211.605 213.706 211.715 C 210.926 211.825 207.706 212.495 206.386 214.925 C 205.206 217.015 205.796 219.585 205.946 221.975 C 206.095 224.492 205.717 227.012 204.836 229.375 C 203.286 233.515 200.136 237.595 201.256 241.875 C 201.986 244.685 204.506 247.015 204.356 249.875 C 204.238 250.612 204.174 251.358 204.166 252.105 C 204.172 252.879 204.717 253.545 205.476 253.705 C 205.877 253.7 206.267 253.574 206.596 253.345 C 208.258 252.415 209.75 251.207 211.006 249.775 C 214.386 245.915 216.136 241.085 221.366 239.295 C 224.896 238.125 230.186 239.065 233.406 240.665 Z" fill="#8e6f7f"/>
    <path d="M 267.816 415.225 L 262.416 416.695 L 249.946 420.125 C 247.059 422.275 243.812 423.89 240.356 424.895 C 232.726 426.825 227.796 422.625 223.696 416.125 C 222.046 413.525 222.876 411.445 225.036 409.815 C 230.236 405.885 243.096 404.605 247.036 405.125 C 249.623 405.335 252.224 404.931 254.626 403.945 C 256.33 403.324 257.974 402.548 259.536 401.625 L 267.816 415.225 Z" fill="#ffc4d0"/>
    <path d="M 267.816 415.225 L 262.416 416.695 C 260.866 412.025 258.316 406.165 254.666 403.915 C 256.37 403.294 258.014 402.518 259.576 401.595 L 267.816 415.225 Z" opacity="0.1"/>
    <path d="M 304.336 402.365 C 302.096 404.175 300.196 405.825 300.196 405.825 C 300.196 405.825 274.196 413.975 269.196 424.225 C 269.196 424.225 265.196 404.225 256.696 403.975 C 256.696 403.975 265.846 400.385 268.486 397.315 L 294.116 395.975 C 294.116 395.975 299.116 398.695 304.336 402.365 Z" opacity="0.1"/>
    <path d="M 303.946 323.975 L 309.696 332.475 L 311.446 358.975 C 311.446 358.975 311.946 384.475 311.446 385.475 L 311.946 384.475 C 311.946 384.475 310.946 394.475 307.946 396.225 C 304.946 397.975 298.196 403.825 298.196 403.825 C 298.196 403.825 272.196 411.975 267.196 422.225 C 267.196 422.225 263.196 402.225 254.696 401.975 C 254.696 401.975 267.446 396.975 267.196 393.725 C 267.196 393.725 276.946 384.975 277.696 382.725 C 278.446 380.475 283.316 380.225 283.316 380.225 C 283.316 380.225 284.446 364.725 282.196 362.225 C 279.946 359.725 278.696 354.975 278.696 354.975 L 303.946 323.975 Z" fill="#eaeaf2"/>
    <path d="M 240.356 424.865 C 232.726 426.795 227.796 422.595 223.696 416.095 C 222.046 413.495 222.876 411.415 225.036 409.785 L 225.816 410.095 C 225.816 410.095 239.566 416.055 240.356 424.865 Z" opacity="0.1"/>
    <path d="M 237.196 432.855 C 228.196 445.355 211.446 427.975 210.196 424.475 C 209.746 423.205 208.036 422.075 206.066 421.165 C 203.566 420.073 200.972 419.212 198.316 418.595 L 213.196 406.475 L 216.046 407.615 L 224.816 411.125 C 224.816 411.125 246.196 420.355 237.196 432.855 Z" fill="#ffc4d0"/>
    <path d="M 216.046 407.615 C 207.846 411.515 206.096 417.125 206.046 421.165 C 203.546 420.073 200.952 419.212 198.296 418.595 L 213.176 406.475 L 216.046 407.615 Z" opacity="0.1"/>
    <path d="M 202.946 429.225 C 202.946 429.225 178.946 410.225 167.446 401.975 C 166.007 400.95 164.667 399.791 163.446 398.515 C 166.846 396.375 169.386 394.975 169.386 394.975 L 198.966 396.175 C 199.756 397.545 200.226 398.475 200.226 398.475 L 216.226 408.975 C 196.946 415.225 202.946 429.225 202.946 429.225 Z" opacity="0.1"/>
    <path d="M 170.946 329.475 L 166.196 332.225 C 166.196 332.225 160.446 350.475 161.946 362.475 C 161.946 362.475 157.446 379.725 159.196 382.475 C 159.196 382.475 156.946 391.725 168.446 399.975 C 179.946 408.225 203.946 427.225 203.946 427.225 C 203.946 427.225 197.946 413.225 217.196 406.975 L 201.196 396.475 C 201.196 396.475 195.826 385.815 190.696 383.475 C 190.696 383.475 186.696 379.475 189.196 376.725 C 191.696 373.975 193.696 370.975 193.696 368.225 C 193.696 365.475 194.696 352.475 194.696 352.475 L 197.696 338.475 L 170.946 329.475 Z" fill="#eaeaf2"/>
    <path d="M 243.696 317.595 L 233.946 317.595 C 233.887 317.54 233.833 317.48 233.786 317.415 L 233.946 316.595 L 235.196 313.355 L 243.576 316.595 L 243.696 317.595 Z" opacity="0.1"/>
    <path d="M 246.846 300.665 C 246.846 300.665 238.386 307.725 233.946 300.665 C 233.946 300.665 229.946 312.605 233.946 316.605 L 245.946 316.605 C 245.946 316.605 252.236 305.725 246.846 300.665 Z" fill="#bc8487"/>
    <path d="M 258.286 277.475 L 270.886 280.725 C 270.886 280.725 258.946 311.725 256.316 311.725 L 241.196 304.475 L 258.286 277.475 Z" opacity="0.1"/>
    <path d="M 260.946 281.475 L 240.756 302.875 L 240.196 303.475 L 239.466 303.045 L 257.116 276.125 L 257.546 276.835 C 258.542 278.477 259.679 280.03 260.946 281.475 Z" opacity="0.1"/>
    <path d="M 257.286 276.475 L 269.886 279.725 C 269.886 279.725 257.946 310.725 255.316 310.725 L 240.196 303.475 L 257.286 276.475 Z" fill="#eaeaf2"/>
    <path d="M 216.866 274.035 L 205.946 277.475 C 205.946 277.475 216.696 309.975 219.696 311.725 L 239.196 304.475 L 216.866 274.035 Z" opacity="0.1"/>
    <path d="M 240.756 302.875 L 240.196 303.475 C 240.196 303.475 213.946 288.225 215.946 283.975 C 216.946 281.795 217.536 277.255 217.846 273.345 L 217.846 272.735 L 240.756 302.875 Z" opacity="0.1"/>
    <path d="M 217.866 273.035 L 206.946 276.475 C 206.946 276.475 217.696 308.975 220.696 310.725 L 240.196 303.475 L 217.866 273.035 Z" fill="#eaeaf2"/>
    <path d="M 191.856 326.125 C 191.856 326.125 198.436 327.295 198.316 334.125 C 198.196 340.955 201.026 325.295 201.026 325.295 L 191.856 326.125 Z" opacity="0.1"/>
    <path d="M 193.356 347.125 C 193.356 347.125 191.526 357.455 193.356 366.795 C 195.186 376.135 195.026 379.295 196.446 379.795 C 197.866 380.295 193.356 347.125 193.356 347.125 Z" opacity="0.1"/>
    <path d="M 277.356 346.125 C 275.12 346.408 273.684 348.644 274.356 350.795 C 275.196 354.975 277.356 346.125 277.356 346.125 Z" opacity="0.1"/>
    <path d="M 163.026 381.125 C 163.026 381.125 184.456 379.295 188.026 383.125 C 191.596 386.955 163.026 381.125 163.026 381.125 Z" opacity="0.1"/>
    <path d="M 287.356 382.575 C 287.356 382.575 303.026 380.645 306.696 383.315" opacity="0.1"/>
    <path d="M 293.696 385.125 C 293.696 385.125 303.026 385.455 305.196 386.625" opacity="0.1"/>
    <path d="M 295.526 388.475 C 295.526 388.475 304.026 388.145 305.196 389.475" opacity="0.1"/>
    <path d="M 175.656 435.475 C 175.656 435.475 182.936 439.265 182.196 443.135 C 181.456 447.005 175.656 435.475 175.656 435.475 Z" opacity="0.1"/>
    <path d="M 169.356 437.315 C 169.356 437.315 180.466 451.725 178.956 456.475 C 177.446 461.225 169.356 437.315 169.356 437.315 Z" opacity="0.1"/>
    <path d="M 288.446 439.705 C 288.446 439.705 282.946 444.235 283.096 447.975" opacity="0.1"/>
    <path d="M 161.446 528.975 C 161.446 528.975 161.446 533.225 169.316 539.475" opacity="0.1"/>
    <path d="M 300.356 518.975 C 300.356 518.975 299.516 527.815 291.856 532.395" opacity="0.1"/>
    <g opacity="0.1" transform="matrix(1, 0, 0, 1, -267.654388, -215.695328)">
      <path d="M568.83,464.81c0-.69-.12-1.4-.18-2.1a20.17,20.17,0,0,0,.14,4.58A18.64,18.64,0,0,0,568.83,464.81Z" transform="translate(-95.23 -30.18)"/>
      <path d="M567.24,492.75c.15-2.9-2.37-5.23-3.1-8a2.7,2.7,0,0,1-.08-.41,7.71,7.71,0,0,0,.08,3.41c.59,2.29,2.37,4.25,2.93,6.47C567.12,493.7,567.22,493.23,567.24,492.75Z" transform="translate(-95.23 -30.18)"/>
      <path d="M637.18,480.26a13.33,13.33,0,0,1-3.57,4.39c-2.33,2.15-5.22,4.46-8.31,3.76-4.59-1-6.17-8-10.85-8.48s-7.79,6-12.52,5.87c-2-.05-3.8-1.36-5.64-2.27-3.22-1.59-8.51-2.56-12-1.36-5.23,1.79-7,6.63-10.36,10.48a16.87,16.87,0,0,1-4.4,3.58,2.12,2.12,0,0,1-1.13.35,1.39,1.39,0,0,1-1.12-.9v.07a15.39,15.39,0,0,0-.19,2.24,1.65,1.65,0,0,0,1.31,1.59,2.12,2.12,0,0,0,1.13-.35,16.87,16.87,0,0,0,4.4-3.58c3.38-3.85,5.13-8.69,10.36-10.48,3.53-1.2,8.82-.23,12,1.36,1.84.91,3.6,2.22,5.64,2.27,4.73.12,7.82-6.39,12.52-5.87s6.26,7.44,10.85,8.48c3.09.7,6-1.61,8.31-3.76a13.33,13.33,0,0,0,3.57-4.39,8.44,8.44,0,0,0,.43-4.54A7.07,7.07,0,0,1,637.18,480.26Z" transform="translate(-95.23 -30.18)"/>
    </g>
    <path d="M 137.116 568.605 C 137.116 568.605 145.286 566.085 148.676 570.865" opacity="0.1"/>
    <path d="M 326.386 569.605 C 326.386 569.605 312.856 568.815 313.386 572.475" opacity="0.1"/>
    <ellipse cx="596.516" cy="557.645" rx="26.93" ry="4.55" fill="#38d39f" opacity="0.1"/>
    <ellipse cx="-176.56" cy="594.985" rx="26.93" ry="4.55" fill="#38d39f" opacity="0.1"/>
    <ellipse cx="-72.394" cy="619.395" rx="26.93" ry="4.55" fill="#38d39f" opacity="0.1"/>
    <ellipse cx="537.566" cy="606.405" rx="40.21" ry="6.8" style="fill: rgb(0, 180, 255);"/>
    <path d="M 554.196 595.285 C 556.028 593.786 557.364 591.767 558.026 589.495 C 558.526 587.205 557.546 584.495 555.346 583.605 C 552.886 582.665 550.256 584.375 548.266 586.095 C 546.276 587.815 543.986 589.785 541.376 589.415 C 544.108 586.943 545.342 583.219 544.626 579.605 C 544.508 578.868 544.194 578.177 543.716 577.605 C 542.356 576.145 539.876 576.765 538.246 577.925 C 533.046 581.575 531.596 588.645 531.566 594.995 C 531.036 592.705 531.486 590.315 531.466 587.995 C 531.446 585.675 530.816 582.995 528.826 581.765 C 527.598 581.106 526.218 580.782 524.826 580.825 C 522.486 580.735 519.886 580.975 518.286 582.685 C 516.286 584.805 516.826 588.365 518.546 590.685 C 520.266 593.005 522.896 594.495 525.316 596.105 C 527.252 597.259 528.902 598.835 530.146 600.715 C 530.295 600.977 530.416 601.256 530.506 601.545 L 545.116 601.545 C 548.41 599.876 551.464 597.77 554.196 595.285 Z" style="fill: rgb(0, 180, 255);"/>
    <path d="M -71.004 507.575 C -71.004 507.575 -65.504 514.765 -73.534 525.575 C -81.564 536.385 -88.184 545.575 -85.534 552.345 C -85.534 552.345 -73.414 532.195 -63.534 531.915 C -53.654 531.635 -60.154 519.695 -71.004 507.575 Z" style="fill: rgb(0, 180, 255);"/>
    <path d="M -71.004 507.575 C -70.525 508.271 -70.148 509.032 -69.884 509.835 C -60.264 521.135 -55.134 531.685 -64.384 531.945 C -72.994 532.195 -83.324 547.595 -85.804 551.485 C -85.724 551.785 -85.624 552.075 -85.514 552.375 C -85.514 552.375 -73.394 532.225 -63.514 531.945 C -53.634 531.665 -60.154 519.695 -71.004 507.575 Z" opacity="0.1"/>
    <path d="M -60.794 516.735 C -60.794 519.265 -61.074 521.315 -61.424 521.315 C -61.774 521.315 -62.054 519.265 -62.054 516.735 C -62.054 514.205 -61.704 515.395 -61.354 515.395 C -61.004 515.395 -60.794 514.205 -60.794 516.735 Z" fill="#ffd037"/>
    <path d="M -57.284 519.755 C -59.504 520.965 -61.444 521.695 -61.604 521.385 C -61.764 521.075 -60.114 519.845 -57.894 518.635 C -55.674 517.425 -56.544 518.305 -56.384 518.635 C -56.224 518.965 -55.064 518.545 -57.284 519.755 Z" fill="#ffd037"/>
    <path d="M -100.01 507.575 C -100.01 507.575 -105.51 514.765 -97.484 525.575 C -89.454 536.385 -82.834 545.575 -85.484 552.345 C -85.484 552.345 -97.594 532.195 -107.48 531.915 C -117.37 531.635 -110.88 519.695 -100.01 507.575 Z" style="fill: rgb(0, 180, 255);"/>
    <path d="M -100.01 507.575 C -100.5 508.271 -100.88 509.032 -101.14 509.835 C -110.76 521.135 -115.88 531.685 -106.64 531.945 C -98.024 532.195 -87.694 547.595 -85.214 551.485 C -85.296 551.787 -85.396 552.084 -85.514 552.375 C -85.514 552.375 -97.624 532.225 -107.51 531.945 C -117.4 531.665 -110.88 519.695 -100.01 507.575 Z" opacity="0.1"/>
    <path d="M -110.23 516.735 C -110.23 519.265 -109.94 521.315 -109.59 521.315 C -109.24 521.315 -108.96 519.265 -108.96 516.735 C -108.96 514.205 -109.31 515.395 -109.66 515.395 C -110.01 515.395 -110.23 514.205 -110.23 516.735 Z" fill="#ffd037"/>
    <path d="M -113.73 519.755 C -111.51 520.965 -109.58 521.695 -109.41 521.385 C -109.24 521.075 -110.91 519.845 -113.13 518.635 C -115.35 517.425 -114.47 518.305 -114.64 518.635 C -114.81 518.965 -115.95 518.545 -113.73 519.755 Z" fill="#ffd037"/>
    <path d="M -108.48 551.435 C -108.48 551.435 -93.124 550.955 -88.484 547.665 C -83.844 544.375 -64.854 540.425 -63.714 545.715 C -62.574 551.005 -40.624 572.005 -57.964 572.145 C -75.304 572.285 -98.264 569.445 -102.88 566.635 C -107.5 563.825 -108.48 551.435 -108.48 551.435 Z" style="fill: rgb(93, 155, 254);"/>
    <path d="M -57.664 570.305 C -75.004 570.445 -97.964 567.605 -102.58 564.795 C -106.09 562.645 -107.5 554.955 -107.97 551.415 L -108.48 551.415 C -108.48 551.415 -107.48 563.795 -102.89 566.615 C -98.304 569.435 -75.314 572.265 -57.974 572.125 C -52.974 572.125 -51.244 570.305 -51.334 567.665 C -52.034 569.285 -53.944 570.275 -57.664 570.305 Z" opacity="0.2"/>
  </g>
</svg>