<?xml version="1.0" encoding="utf-8"?>
<svg xmlns="http://www.w3.org/2000/svg" viewBox="-267.6541 -215.6954 1009.5397 675.6681" width="1009.54px" height="675.668px" preserveAspectRatio="none"><path d="M 318.896 -104.3 C 254.176 -106.55 192.536 -127.44 133.676 -150.29 C 74.816 -173.16 16.516 -198.49 -46.654 -210.59 C -87.284 -218.38 -133.75 -219.49 -166.48 -197.71 C -197.99 -176.71 -208.17 -140.56 -213.64 -106.97 C -217.76 -81.715 -220.18 -55.125 -208.9 -31.485 C -201.06 -15.065 -187.16 -1.265 -177.54 14.465 C -144.07 69.185 -167.73 136.665 -203.99 190.095 C -220.99 215.165 -240.74 239.095 -253.87 265.755 C -267 292.415 -273.07 323.005 -261.58 350.225 C -250.2 377.225 -223.07 397.465 -193.68 411.715 C -133.99 440.665 -63.684 448.945 4.926 453.635 C 156.756 464.025 309.386 459.525 461.616 455.025 C 517.956 453.355 574.536 451.665 629.956 442.955 C 660.736 438.115 692.506 430.445 714.856 411.905 C 743.216 388.375 750.246 348.535 731.236 319.025 C 699.356 269.535 611.236 257.245 588.926 204.135 C 576.666 174.895 589.256 142.335 607.086 115.215 C 645.326 57.055 709.416 6.025 712.786 -60.455 C 715.106 -106.11 684.296 -151.84 636.656 -173.46 C 586.726 -196.09 517.476 -193.25 480.656 -155.76 C 442.706 -117.17 376.046 -102.31 318.896 -104.3 Z" fill="#38d39f" opacity="0.1" id="object-0"/></svg>